HIERARCHY
ROOT Hips
{
	OFFSET	0.000000	0.000000	0.000000
	CHANNELS 6 Xposition Yposition Zposition Zrotation Xrotation Yrotation
	JOINT LeftHip
	{
		OFFSET	4.740440	-3.195970	-0.322709
		CHANNELS 3 Zrotation Xrotation Yrotation
		JOINT LeftKnee
		{
			OFFSET	-1.605680	-15.592300	1.005510
			CHANNELS 3 Zrotation Xrotation Yrotation
			JOINT LeftAnkle
			{
				OFFSET	-0.632401	-16.421000	-1.413730
				CHANNELS 3 Zrotation Xrotation Yrotation
				End Site
				{
					OFFSET	0.008423	-2.933000	-1.684880
				}
			}
		}
	}
	JOINT RightHip
	{
		OFFSET	-4.740440	-3.195970	-0.322709
		CHANNELS 3 Zrotation Xrotation Yrotation
		JOINT RightKnee
		{
			OFFSET	1.605680	-15.592300	1.005510
			CHANNELS 3 Zrotation Xrotation Yrotation
			JOINT RightAnkle
			{
				OFFSET	0.632401	-16.421000	-1.413730
				CHANNELS 3 Zrotation Xrotation Yrotation
				End Site
				{
					OFFSET	-0.008423	-2.933000	-1.684880
				}
			}
		}
	}
	JOINT Chest
	{
		OFFSET	0.000000	3.468200	0.078401
		CHANNELS 3 Zrotation Xrotation Yrotation
		JOINT LeftCollar
		{
			OFFSET	3.857650	15.070700	-0.011583
			CHANNELS 3 Zrotation Xrotation Yrotation
			JOINT LeftShoulder
			{
				OFFSET	3.979720	-1.940530	-0.165223
				CHANNELS 3 Zrotation Xrotation Yrotation
				JOINT LeftElbow
				{
					OFFSET	0.615844	-10.986600	-0.673886
					CHANNELS 3 Zrotation Xrotation Yrotation
					JOINT LeftWrist
					{
						OFFSET	0.826843	-10.854500	1.034220
						CHANNELS 3 Zrotation Xrotation Yrotation
						End Site
						{
							OFFSET	-1.679080	-8.456540	0.936217
						}
					}
				}
			}
		}
		JOINT RightCollar
		{
			OFFSET	-3.857650	15.070700	-0.011583
			CHANNELS 3 Zrotation Xrotation Yrotation
			JOINT RightShoulder
			{
				OFFSET	-3.979720	-1.940530	-0.165223
				CHANNELS 3 Zrotation Xrotation Yrotation
				JOINT RightElbow
				{
					OFFSET	-0.615845	-10.986600	-0.673886
					CHANNELS 3 Zrotation Xrotation Yrotation
					JOINT RightWrist
					{
						OFFSET	-0.826843	-10.854500	1.034220
						CHANNELS 3 Zrotation Xrotation Yrotation
						End Site
						{
							OFFSET	1.679080	-8.456540	0.936217
						}
					}
				}
			}
		}
		JOINT Neck
		{
			OFFSET	0.000000	15.101400	0.055730
			CHANNELS 3 Zrotation Xrotation Yrotation
			JOINT Head
			{
				OFFSET	0.000000	4.185120	1.488260
				CHANNELS 3 Zrotation Xrotation Yrotation
				End Site
				{
					OFFSET	0.000000	7.773420	-0.106016
				}
			}
		}
	}
}
MOTION
Frames:    14
Frame Time: 0.016667
-3.726431	37.912922	9.074730	0.179471	-10.707222	-10.904557	-3.685517	8.905476	1.313566	0.347448	1.709575	4.709695	4.967348	-1.881746	5.375601	-16.519781	-1.429016	-3.633422	0.883378	16.384916	4.009160	11.453660	-3.426334	1.564369	-3.072329	10.207860	-4.872677	-4.651530	2.623135	2.420368	3.585383	-4.211866	4.534037	-7.882847	-10.722673	-10.306843	14.248454	3.763168	-19.224213	-5.127293	-1.996734	4.614093	0.241930	3.052201	1.800873	0.667064	-7.917754	7.591156	-20.224289	-3.622957	20.554523	-4.140786	5.726196	-0.938284	1.217151	3.684739	-7.967364	
-3.726905	37.912670	9.077578	0.179471	-10.707222	-10.904557	-3.685517	8.905476	1.313566	0.347094	1.719525	4.706964	4.967001	-1.891417	5.379195	-16.519781	-1.429016	-3.633422	0.883378	16.384916	4.009160	11.453660	-3.426334	1.564369	-3.072329	10.207860	-4.872677	-4.651530	2.623135	2.420368	3.585383	-4.211866	4.534037	-7.882847	-10.722673	-10.306843	14.248454	3.763168	-19.224213	-5.127293	-1.996734	4.614093	0.241930	3.052201	1.800873	0.667064	-7.917754	7.591156	-20.224289	-3.622957	20.554523	-4.140786	5.726196	-0.938284	1.217151	3.684739	-7.967364	
-3.726933	37.912655	9.077785	0.179471	-10.707222	-10.904557	-3.685517	8.905476	1.313566	0.347041	1.720248	4.706730	4.967005	-1.892118	5.379493	-16.519781	-1.429016	-3.633422	0.883378	16.384916	4.009160	11.453660	-3.426334	1.564369	-3.072329	10.207860	-4.872677	-4.651530	2.623135	2.420368	3.585383	-4.211866	4.534037	-7.882847	-10.722673	-10.306843	14.248454	3.763168	-19.224213	-5.127293	-1.996734	4.614093	0.241930	3.052201	1.800873	0.667064	-7.917754	7.591156	-20.224289	-3.622957	20.554523	-4.140786	5.726196	-0.938284	1.217151	3.684739	-7.967364	
-3.726933	37.912655	9.077785	0.179471	-10.707222	-10.904557	-3.685517	8.905476	1.313566	0.347041	1.720248	4.706730	4.967005	-1.892118	5.379493	-16.519781	-1.429016	-3.633422	0.883378	16.384916	4.009160	11.453660	-3.426334	1.564369	-3.072329	10.207860	-4.872677	-4.651530	2.623135	2.420368	3.585383	-4.211866	4.534037	-7.882847	-10.722673	-10.306843	14.248454	3.763168	-19.224213	-5.127293	-1.996734	4.614093	0.241930	3.052201	1.800873	0.667064	-7.917754	7.591156	-20.224289	-3.622957	20.554523	-4.140786	5.726196	-0.938284	1.217151	3.684739	-7.967364	
-3.726933	37.912655	9.077785	0.179471	-10.707222	-10.904557	-3.685517	8.905476	1.313566	0.347041	1.720248	4.706730	4.967005	-1.892118	5.379493	-16.519781	-1.429016	-3.633422	0.883378	16.384916	4.009160	11.453660	-3.426334	1.564369	-3.072329	10.207860	-4.872677	-4.651530	2.623135	2.420368	3.585383	-4.211866	4.534037	-7.882847	-10.722673	-10.306843	14.248454	3.763168	-19.224213	-5.127293	-1.996734	4.614093	0.241930	3.052201	1.800873	0.667064	-7.917754	7.591156	-20.224289	-3.622957	20.554523	-4.140786	5.726196	-0.938284	1.217151	3.684739	-7.967364	
-3.726933	37.912655	9.077785	0.179471	-10.707222	-10.904557	-3.685517	8.905476	1.313566	0.347041	1.720248	4.706730	4.967005	-1.892118	5.379493	-16.519781	-1.429016	-3.633422	0.883378	16.384916	4.009160	11.453660	-3.426334	1.564369	-3.072329	10.207860	-4.872677	-4.651530	2.623135	2.420368	3.585383	-4.211866	4.534037	-7.882847	-10.722673	-10.306843	14.248454	3.763168	-19.224213	-5.127293	-1.996734	4.614093	0.241930	3.052201	1.800873	0.667064	-7.917754	7.591156	-20.224289	-3.622957	20.554523	-4.140786	5.726196	-0.938284	1.217151	3.684739	-7.967364	
-3.726933	37.912655	9.077785	0.179471	-10.707222	-10.904557	-3.685517	8.905476	1.313566	0.347041	1.720248	4.706730	4.967005	-1.892118	5.379493	-16.519781	-1.429016	-3.633422	0.883378	16.384916	4.009160	11.453660	-3.426334	1.564369	-3.072329	10.207860	-4.872677	-4.651530	2.623135	2.420368	3.585383	-4.211866	4.534037	-7.882847	-10.722673	-10.306843	14.248454	3.763168	-19.224213	-5.127293	-1.996734	4.614093	0.241930	3.052201	1.800873	0.667064	-7.917754	7.591156	-20.224289	-3.622957	20.554523	-4.140786	5.726196	-0.938284	1.217151	3.684739	-7.967364	
-3.726933	37.912655	9.077785	0.179471	-10.707222	-10.904557	-3.685517	8.905476	1.313566	0.347041	1.720248	4.706730	4.967005	-1.892118	5.379493	-16.519781	-1.429016	-3.633422	0.883378	16.384916	4.009160	11.453660	-3.426334	1.564369	-3.072329	10.207860	-4.872677	-4.651530	2.623135	2.420368	3.585383	-4.211866	4.534037	-7.882847	-10.722673	-10.306843	14.248454	3.763168	-19.224213	-5.127293	-1.996734	4.614093	0.241930	3.052201	1.800873	0.667064	-7.917754	7.591156	-20.224289	-3.622957	20.554523	-4.140786	5.726196	-0.938284	1.217151	3.684739	-7.967364	
-3.726933	37.912655	9.077785	0.179471	-10.707222	-10.904557	-3.685517	8.905476	1.313566	0.347041	1.720248	4.706730	4.967005	-1.892118	5.379493	-16.519781	-1.429016	-3.633422	0.883378	16.384916	4.009160	11.453660	-3.426334	1.564369	-3.072329	10.207860	-4.872677	-4.651530	2.623135	2.420368	3.585383	-4.211866	4.534037	-7.882847	-10.722673	-10.306843	14.248454	3.763168	-19.224213	-5.127293	-1.996734	4.614093	0.241930	3.052201	1.800873	0.667064	-7.917754	7.591156	-20.224289	-3.622957	20.554523	-4.140786	5.726196	-0.938284	1.217151	3.684739	-7.967364	
-3.726933	37.912655	9.077785	0.179471	-10.707222	-10.904557	-3.685517	8.905476	1.313566	0.347041	1.720248	4.706730	4.967005	-1.892118	5.379493	-16.519781	-1.429016	-3.633422	0.883378	16.384916	4.009160	11.453660	-3.426334	1.564369	-3.072329	10.207860	-4.872677	-4.649443	2.616565	2.428228	3.582965	-4.205723	4.525657	-7.882847	-10.722673	-10.306843	14.248454	3.763168	-19.224213	-5.127293	-1.996734	4.614093	0.241930	3.052201	1.800873	0.667064	-7.917754	7.591156	-20.224289	-3.622957	20.554523	-4.140786	5.726196	-0.938284	1.217151	3.684739	-7.967364	
-3.726933	37.912655	9.077785	0.179471	-10.707222	-10.904557	-3.685517	8.905476	1.313566	0.347041	1.720248	4.706730	4.967005	-1.892118	5.379493	-16.519781	-1.429016	-3.633422	0.883378	16.384916	4.009160	11.453660	-3.426334	1.564369	-3.072329	10.207860	-4.872677	-4.647185	2.609472	2.436716	3.580348	-4.199093	4.516611	-7.882847	-10.722673	-10.306843	14.248454	3.763168	-19.224213	-5.127293	-1.996734	4.614093	0.241930	3.052201	1.800873	0.667064	-7.917754	7.591156	-20.224289	-3.622957	20.554523	-4.140786	5.726196	-0.938284	1.217151	3.684739	-7.967364	
-3.726933	37.912655	9.077785	0.179471	-10.707222	-10.904557	-3.685517	8.905476	1.313566	0.347041	1.720248	4.706730	4.967005	-1.892118	5.379493	-16.519781	-1.429016	-3.633422	0.883378	16.384916	4.009160	11.453660	-3.426334	1.564369	-3.076658	10.205311	-4.869299	-4.640758	2.605360	2.442970	3.577697	-4.192346	4.507415	-7.882847	-10.722673	-10.306843	14.248454	3.763168	-19.224213	-5.123346	-1.993613	4.611750	0.235740	3.037808	1.800786	0.673729	-7.903560	7.591407	-20.224289	-3.622957	20.554523	-4.136518	5.729277	-0.940692	1.217151	3.684739	-7.967364	
-3.726933	37.912655	9.077785	0.179471	-10.707222	-10.904557	-3.685517	8.905476	1.313566	0.347041	1.720248	4.706730	4.967005	-1.892118	5.379493	-16.519781	-1.429016	-3.633422	0.883378	16.384916	4.009160	11.453660	-3.426334	1.564369	-3.082069	10.202423	-4.865167	-4.634316	2.605011	2.444775	3.576248	-4.188676	4.502411	-7.882847	-10.722673	-10.306843	14.248454	3.763168	-19.224213	-5.118384	-1.990010	4.608888	0.233327	3.032176	1.800734	0.676329	-7.898004	7.591520	-20.224289	-3.622957	20.554523	-4.131164	5.732828	-0.943629	1.217151	3.684739	-7.967364	
-3.726933	37.912655	9.077785	0.179471	-10.707222	-10.904557	-3.685517	8.905476	1.313566	0.347041	1.720248	4.706730	4.967005	-1.892118	5.379493	-16.519781	-1.429016	-3.633422	0.883378	16.384916	4.009160	11.453660	-3.426334	1.564369	-3.096081	10.189398	-4.853117	-4.617236	2.607128	2.451627	3.574552	-4.192467	4.487998	-7.884489	-10.706695	-10.306266	14.248454	3.763168	-19.224213	-5.108515	-1.978172	4.597120	0.228226	3.017303	1.803967	0.684383	-7.895475	7.592221	-20.221823	-3.608896	20.559332	-4.117668	5.747626	-0.952202	1.217151	3.684739	-7.967364	
